<?xml version="1.0" encoding="UTF-8" standalone="no"?>
<svg xmlns="http://www.w3.org/2000/svg" xmlns:svg="http://www.w3.org/2000/svg" viewBox="0 0 16 16" version="1.1" id="plug" width="16" height="16">
<path d="M 5,0 C 4.446875,0 4,0.446875 4,1 V 4 H 6 V 1 C 6,0.446875 5.553125,0 5,0 Z m 6,0 c -0.553125,0 -1,0.446875 -1,1 v 3 h 2 V 1 C 12,0.446875 11.553125,0 11,0 Z M 3,5 C 2.446875,5 2,5.446875 2,6 2,6.553125 2.446875,7 3,7 v 1 c 0,2.41875 1.71875,4.4375 4,4.9 V 15 c 0,0.553125 0.446875,1 1,1 0.553125,0 1,-0.446875 1,-1 V 12.9 C 11.28125,12.4375 13,10.41875 13,8 V 7 C 13.553125,7 14,6.553125 14,6 14,5.446875 13.553125,5 13,5 Z" />
</svg>